<svg id="Ebene_1" data-name="Ebene 1" xmlns="http://www.w3.org/2000/svg" viewBox="0 0 55 87"><defs><style>.cls-1{fill:#ddd;}.cls-2{fill:#fff;}.cls-3{isolation:isolate;font-size:11px;font-family:RobotoSlab-Regular, Roboto Slab;}.cls-4{letter-spacing:0.01em;}.cls-5,.cls-7{stroke:#000;}.cls-5,.cls-6,.cls-7{stroke-miterlimit:10;}.cls-5,.cls-6{stroke-width:0.25px;}.cls-6{fill:#ad2d27;stroke:#ad2d27;}.cls-7{fill:none;}</style></defs><path class="cls-1" d="M4,0H51a4,4,0,0,1,4,4V83a4,4,0,0,1-4,4H4a4,4,0,0,1-4-4V4A4,4,0,0,1,4,0Z" transform="translate(0 0)"/><path class="cls-2" d="M6,2H49a4,4,0,0,1,4,4V81a4,4,0,0,1-4,4H6a4,4,0,0,1-4-4V6A4,4,0,0,1,6,2Z" transform="translate(0 0)"/><text class="cls-3" transform="translate(9.06 54.49)"><tspan class="cls-4">P</tspan><tspan x="7.1" y="0">OKER</tspan></text><path class="cls-5" d="M48.73,33.09v.65H44.5L43,32.21l-1.66,1.66-1.66-1.66L38,33.87l-1.66-1.66-1.67,1.66L33,32.21l-1.66,1.66-1.66-1.66-1.53,1.53H24.68v-.33a2.34,2.34,0,0,0-4.67,0v.33H8.26v-.33a.67.67,0,0,0-.67-.67.68.68,0,0,0-.68.67v.33H6.26v-.33a1.33,1.33,0,0,1,2.61-.32H19.38a3,3,0,0,1,5.93,0h2.57l1.8-1.8L31.34,33,33,31.29,34.66,33l1.67-1.67L38,33l1.66-1.67L41.31,33,43,31.29l1.8,1.8Z" transform="translate(0 0)"/><path class="cls-6" d="M22.35,32.42a1,1,0,1,1-1,1,1,1,0,0,1,1-1" transform="translate(0 0)"/><path class="cls-5" d="M6.27,35.13h.56v3.72H8.69v.56H6.26V35.13Z" transform="translate(0 0)"/><path class="cls-5" d="M12.23,35.13h0a2,2,0,0,1,1.49.66,2.2,2.2,0,0,1-.1,3.06,2,2,0,0,1-1.39.56,2,2,0,0,1-1.38-.55,2.33,2.33,0,0,1-.35-.43,2.17,2.17,0,0,1-.33-1.16h0a2.2,2.2,0,0,1,.68-1.59l.2-.16A2,2,0,0,1,12.23,35.13Zm-1.5,2.14a1.62,1.62,0,0,0,.53,1.2,1.45,1.45,0,0,0,2.16-.25,1.61,1.61,0,0,0,.3-.93v0a1.64,1.64,0,0,0-.41-1.08,1.48,1.48,0,0,0-1.08-.48,1.45,1.45,0,0,0-1.15.57A1.67,1.67,0,0,0,10.73,37.27Z" transform="translate(0 0)"/><path class="cls-5" d="M18,35.13h0a2,2,0,0,1,1.44.61,2.42,2.42,0,0,1,.34.45l0,.06-.5.26a1.41,1.41,0,0,0-.22-.32,1.19,1.19,0,0,0-.27-.24,1.45,1.45,0,0,0-2,.31,1.73,1.73,0,0,0-.34,1,1.62,1.62,0,0,0,.53,1.2,1.46,1.46,0,0,0,2.06-.12,1.77,1.77,0,0,0,.36-.69H18.38v-.54h1.71a3.93,3.93,0,0,1-.05.59,2.35,2.35,0,0,1-.3.75,2,2,0,0,1-1,.85,2.08,2.08,0,0,1-.68.12,2,2,0,0,1-1.37-.54,2.17,2.17,0,0,1-.69-1.6h0a2.2,2.2,0,0,1,.68-1.59l.2-.16A2,2,0,0,1,18,35.13Z" transform="translate(0 0)"/><path class="cls-5" d="M22.05,35.13h.57v4.28h-.57V35.13Z" transform="translate(0 0)"/><path class="cls-5" d="M26.58,35.13h0a2,2,0,0,1,1.44.61,2,2,0,0,1,.33.45l0,.06-.51.26a1.41,1.41,0,0,0-.22-.32A1.19,1.19,0,0,0,27.4,36a1.44,1.44,0,0,0-2,.31,1.66,1.66,0,0,0-.34,1,1.61,1.61,0,0,0,.52,1.2,1.46,1.46,0,0,0,1,.37,1.43,1.43,0,0,0,1.08-.49,1.54,1.54,0,0,0,.36-.69H27v-.54h1.71a5.14,5.14,0,0,1-.06.59,2,2,0,0,1-.3.75,2,2,0,0,1-1,.85,2.08,2.08,0,0,1-.68.12,2,2,0,0,1-1.37-.54,2.17,2.17,0,0,1-.69-1.6h0a2.2,2.2,0,0,1,.68-1.59,1.38,1.38,0,0,1,.21-.16A1.91,1.91,0,0,1,26.58,35.13Z" transform="translate(0 0)"/><path class="cls-5" d="M32.48,35.13s.09.21.26.63l1.48,3.65H33.6l-.08-.2-.3-.72h-2l-.37.92h-.61l1.48-3.66.26-.62Zm-1.06,2.79H33L32.21,36s-.11.26-.32.79Z" transform="translate(0 0)"/><path class="cls-5" d="M35.49,35.13h2.84v.56H37.19v3.72h-.57V35.69H35.48v-.56Z" transform="translate(0 0)"/><path class="cls-5" d="M41.85,35.13h0a2,2,0,0,1,1.49.66,2.2,2.2,0,0,1-.1,3.06,2,2,0,0,1-1.39.56,2,2,0,0,1-1.38-.55,2,2,0,0,1-.35-.43,2.17,2.17,0,0,1-.33-1.16h0a2.2,2.2,0,0,1,.68-1.59l.2-.16A2,2,0,0,1,41.85,35.13Zm-1.49,2.14a1.62,1.62,0,0,0,.53,1.2,1.45,1.45,0,0,0,2.16-.25,1.61,1.61,0,0,0,.3-.93v0a1.6,1.6,0,0,0-.42-1.08,1.44,1.44,0,0,0-1.07-.48,1.49,1.49,0,0,0-1.16.57A1.73,1.73,0,0,0,40.36,37.27Z" transform="translate(0 0)"/><path class="cls-5" d="M45.84,35.13h1.41a1.52,1.52,0,0,1,1.15.51,1.4,1.4,0,0,1,.34.9,1.37,1.37,0,0,1-.49,1,1.4,1.4,0,0,1-.45.27l.57,1,.33.56H48a2.43,2.43,0,0,1-.16-.28L47.2,38h-.81V39.4h-.56V35.13Zm.55.57v1.68h.88A1,1,0,0,0,48,37a.83.83,0,0,0,.17-.48v0a.81.81,0,0,0-.37-.66,1,1,0,0,0-.64-.17h-.77Z" transform="translate(0 0)"/><line class="cls-7" x1="6.26" y1="43.61" x2="48.73" y2="43.61"/></svg>