<svg id="Ebene_1" data-name="Ebene 1" xmlns="http://www.w3.org/2000/svg" viewBox="0 0 55 87">
    <defs>
        <style>
            .cls-1{fill:#ddd;}.cls-2{fill:#fff;}.cls-3{isolation:isolate;font-size:12px;font-family:RobotoSlab-Regular,
            Roboto Slab;}.red{fill:#c90005;}
        </style>
    </defs>
    <rect class="cls-1" width="55" height="87" rx="4"/>
    <rect class="cls-2" x="2" y="2" width="51" height="83" rx="4"/>

    <g id="text">
    <text class="cls-3" x="10.6" y="16" text-anchor="middle"  >7</text>
    <text class="cls-3" x="44.6" y="-71" text-anchor="middle"  transform="scale(1,-1)" >7</text>
    </g><g>
		<polygon points="11.27 24.55 9.93 24.55 10.35 22.6 10.85 22.6 11.27 24.55"/>
		<circle cx="8.7" cy="21.7" r="2.1"/>
		<circle cx="10.64" cy="19.6" r="2.1"/>
		<circle cx="12.5" cy="21.7" r="2.1"/>
	</g>
	<g>
		<polygon points="44.85 64.4 44.35 64.4 43.93 62.45 45.27 62.45 44.85 64.4"/>
		<circle cx="42.7" cy="65.3" r="2.1"/>
		<circle cx="44.64" cy="67.4" r="2.1"/>
		<circle cx="46.5" cy="65.3" r="2.1"/>
	</g>
   	<g>
		<polygon points="28.85 49.56 26.18 49.56 27.01 45.67 28.01 45.67 28.85 49.56"/>
		<circle cx="23.72" cy="43.87" r="4.19"/>
		<circle cx="27.59" cy="39.69" r="4.19"/>
		<circle cx="31.31" cy="43.87" r="4.19"/>
	</g></svg>