<svg id="Ebene_1" data-name="Ebene 1" xmlns="http://www.w3.org/2000/svg" viewBox="0 0 55 87">
    <defs>
        <style>
            .cls-1{fill:#ddd;}.cls-2{fill:#fff;}.cls-3{isolation:isolate;font-size:12px;font-family:RobotoSlab-Regular,
            Roboto Slab;}.red{fill:#c90005;}
        </style>
    </defs>
    <rect class="cls-1" width="55" height="87" rx="4"/>
    <rect class="cls-2" x="2" y="2" width="51" height="83" rx="4"/>

    <g id="text">
    <text class="cls-3" x="10.6" y="16" text-anchor="middle"  >10</text>
    <text class="cls-3" x="44.6" y="-71" text-anchor="middle"  transform="scale(1,-1)" >10</text>
    </g><path class="red"
          d="M27.5,50.81c-2.32-5-4.3-4-6.62-6.62a4.68,4.68,0,0,1,6.62-6.63h0a4.68,4.68,0,1,1,6.62,6.63h0c-2.32,2.64-4.3,1.65-6.62,6.62"
          transform="translate(0 0)"/>
    <path class="red"
          d="M10.59,24.8c-1.15-2.46-2.14-2-3.3-3.31a2.33,2.33,0,1,1,3.3-3.3h0a2.34,2.34,0,0,1,3.48,3.13c-.06.06-.11.12-.17.17h0c-1.15,1.33-2.14.83-3.31,3.31"
          transform="translate(0 0)"/>
    <path class="red"
          d="M44.59,62.09c1.16,2.48,2.15,2,3.32,3.32a2.35,2.35,0,0,1-3.17,3.48l-.15-.16h0a2.34,2.34,0,1,1-3.31-3.32h0c1.15-1.32,2.15-.83,3.31-3.32"
          transform="translate(0 0)"/></svg>