<svg id="Ebene_1" data-name="Ebene 1" xmlns="http://www.w3.org/2000/svg" viewBox="0 0 55 87">
    <defs>
        <style>
            .cls-1{fill:#ddd;}.cls-2{fill:#fff;}.cls-3{isolation:isolate;font-size:12px;font-family:RobotoSlab-Regular,
            Roboto Slab;}.red{fill:#c90005;}
        </style>
    </defs>
    <rect class="cls-1" width="55" height="87" rx="4"/>
    <rect class="cls-2" x="2" y="2" width="51" height="83" rx="4"/>

    <g id="text">
    <text class="cls-3" x="10.6" y="16" text-anchor="middle"  >9</text>
    <text class="cls-3" x="44.6" y="-71" text-anchor="middle"  transform="scale(1,-1)" >9</text>
    </g> <g>
        <path d="M10.64,17.58c1.15,2.45,2.13,2,3.27,3.27h0a2.32,2.32,0,0,1-3.27,3.23h0a2.32,2.32,0,0,1-3.27-3.27C8.52,19.5,9.5,20,10.64,17.54"
              transform="translate(0 0)"/>
        <polygon points="11.31 25.46 9.97 25.46 10.39 24.08 10.89 24.08 11.31 25.46"/>
    </g>
    <g>
        <path d="M27.52,35.53c2.33,5,4.32,4,6.62,6.62h0a4.68,4.68,0,0,1-6.62,6.61h0a4.67,4.67,0,0,1-6.61-6.61c2.33-2.65,4.31-1.68,6.61-6.62"
              transform="translate(0 0)"/>
        <polygon points="28.89 51.47 26.18 51.47 27.01 48.67 28.03 48.67 28.89 51.47"/>
    </g>
    <g>
        <path d="M44.6,69.44c-1.14-2.44-2.12-2-3.27-3.27A2.32,2.32,0,0,1,44.6,62.9h0a2.32,2.32,0,0,1,3.27,3.27h0c-1.14,1.31-2.12.82-3.27,3.27"
              transform="translate(0 0)"/>
        <polygon points="44.85 62.94 44.34 62.94 43.93 61.56 45.27 61.56 44.85 62.94"/>
    </g></svg>